<svg xmlns="http://www.w3.org/2000/svg" data-name="Layer 1" viewBox="0 0 96 120" x="0px" y="0px"><title>Artboard 107</title><path d="M70.624,11.376A31.9952,31.9952,0,0,0,16,34V83.71a2.0003,2.0003,0,0,0,3.39453,1.43457A3.503,3.503,0,0,1,22.00977,84c2.05957,0,3.1748,1.55371,4.82324,4.08984C28.544,90.72266,30.6748,94,35.00977,94s6.46582-3.27734,8.17675-5.91016C44.835,85.55371,45.94922,84,48.00977,84c2.05957,0,3.1748,1.55371,4.82324,4.08984C54.544,90.72266,56.6748,94,61.00977,94s6.46582-3.27734,8.17675-5.91016C70.835,85.55371,71.94922,84,74.00977,84a3.47587,3.47587,0,0,1,2.59668,1.124A2.00007,2.00007,0,0,0,80,83.68945V34A31.78912,31.78912,0,0,0,70.624,11.376ZM76,80.25391A7.62426,7.62426,0,0,0,74.00977,80c-4.335,0-6.46582,3.27734-8.17676,5.91016C64.18457,88.44629,63.06934,90,61.00977,90c-2.06055,0-3.17481-1.55371-4.82325-4.08984C54.47559,83.27734,52.34473,80,48.00977,80S41.544,83.27734,39.833,85.91016C38.18457,88.44629,37.06934,90,35.00977,90c-2.06055,0-3.17481-1.55371-4.82325-4.08984C28.47559,83.27734,26.34473,80,22.00977,80A7.57449,7.57449,0,0,0,20,80.26172V34a28,28,0,0,1,56,0Z"/><ellipse cx="48" cy="51" rx="6" ry="9"/><ellipse cx="36" cy="30.0022" rx="5" ry="4"/><ellipse cx="61" cy="30.0022" rx="5" ry="4"/><text x="0" y="111" fill="#000000" font-size="5px" font-weight="bold" font-family="'Helvetica Neue', Helvetica, Arial-Unicode, Arial, Sans-serif">Created by Adi Kurniawan</text><text x="0" y="116" fill="#000000" font-size="5px" font-weight="bold" font-family="'Helvetica Neue', Helvetica, Arial-Unicode, Arial, Sans-serif">from the Noun Project</text></svg>