<?xml version="1.0" encoding="iso-8859-1"?>
<!-- Generator: Adobe Illustrator 19.0.0, SVG Export Plug-In . SVG Version: 6.00 Build 0)  -->
<svg version="1.1" id="Capa_1" xmlns="http://www.w3.org/2000/svg" xmlns:xlink="http://www.w3.org/1999/xlink" x="0px" y="0px"
	 viewBox="0 0 512 512" style="enable-background:new 0 0 512 512;" xml:space="preserve">
<g>
	<g>
		<path d="M504.5,416.836h-40.081c-31.225,0-56.629-25.403-56.629-56.629V308.55c0-15.126,5.89-29.347,16.586-40.042l40.649-40.649
			c6.049-6.05,6.049-15.893,0-21.943l-22.669-22.668c-2.931-2.932-6.827-4.545-10.972-4.545c-4.145,0-8.042,1.613-10.972,4.544
			l-12.622,12.622v-60.113c0-6.19-2.407-11.827-6.328-16.032c3.922-4.206,6.328-9.842,6.328-16.032
			c0-12.976-10.557-23.532-23.532-23.532H127.742c-12.976,0-23.532,10.557-23.532,23.532c0,6.19,2.407,11.827,6.328,16.032
			c-3.922,4.206-6.328,9.842-6.328,16.032v41.731l-36.668-36.668c-1.479-1.479-3.207-2.626-5.137-3.409
			c-3.764-1.527-7.909-1.527-11.673,0c-1.93,0.783-3.658,1.931-5.134,3.407l-22.67,22.669c-4.417,4.418-5.755,11.016-3.406,16.809
			c0.782,1.928,1.927,3.654,3.407,5.136l69.395,69.394c0.939,0.938,1.846,1.939,2.696,2.978c0.841,1.025,1.639,2.103,2.372,3.203
			c2.204,3.306,3.909,6.911,5.066,10.717c1.164,3.829,1.754,7.802,1.754,11.807v76.68c0,31.226-25.404,56.629-56.629,56.629H7.5
			c-4.142,0-7.5,3.357-7.5,7.5s3.358,7.5,7.5,7.5h497c4.142,0,7.5-3.357,7.5-7.5S508.642,416.836,504.5,416.836z M91.365,416.836
			c16.921-13.114,27.844-33.614,27.844-56.629v-76.68c0-5.484-0.809-10.925-2.403-16.17c-1.584-5.211-3.918-10.148-6.937-14.675
			c-1.005-1.508-2.099-2.985-3.25-4.39c-1.163-1.419-2.406-2.792-3.694-4.079l-69.389-69.388c-0.055-0.055-0.092-0.11-0.117-0.17
			c-0.014-0.033-0.124-0.328,0.113-0.564l22.672-22.67c0.053-0.053,0.106-0.089,0.167-0.114c0.121-0.049,0.272-0.049,0.392,0
			c0.062,0.025,0.115,0.062,0.169,0.116l47.277,47.276v17.216c0,4.143,3.358,7.5,7.5,7.5c4.142,0,7.5-3.357,7.5-7.5v-80.161
			c0-4.705,3.828-8.532,8.532-8.532H312.11c4.142,0,7.5-3.357,7.5-7.5s-3.358-7.5-7.5-7.5H127.742c-4.705,0-8.532-3.827-8.532-8.532
			s3.828-8.532,8.532-8.532h256.517c4.705,0,8.532,3.827,8.532,8.532s-3.828,8.532-8.532,8.532h-40.081c-4.142,0-7.5,3.357-7.5,7.5
			s3.358,7.5,7.5,7.5h40.081c4.705,0,8.532,3.827,8.532,8.532v78.22c0,3.033,1.827,5.769,4.63,6.929
			c2.802,1.162,6.029,0.521,8.173-1.625l25.426-25.426c0.037-0.037,0.151-0.15,0.365-0.15c0.213,0,0.327,0.113,0.365,0.151
			l22.669,22.668c0.202,0.202,0.202,0.529,0,0.73l-40.648,40.648c-2.155,2.156-4.138,4.436-5.979,6.804V247.98
			c0-4.143-3.358-7.5-7.5-7.5c-4.142,0-7.5,3.357-7.5,7.5v112.228c0,23.015,10.923,43.515,27.844,56.629H91.365z"/>
	</g>
</g>
<g>
	<g>
		<path d="M151.791,176.352c-4.142,0-7.5,3.357-7.5,7.5v48.097c0,4.143,3.358,7.5,7.5,7.5c4.142,0,7.5-3.357,7.5-7.5v-48.097
			C159.291,179.709,155.933,176.352,151.791,176.352z"/>
	</g>
</g>
<g>
	<g>
		<path d="M183.855,208.417c-4.142,0-7.5,3.357-7.5,7.5v96.194c0,4.143,3.358,7.5,7.5,7.5c4.142,0,7.5-3.357,7.5-7.5v-96.194
			C191.355,211.774,187.997,208.417,183.855,208.417z"/>
	</g>
</g>
<g>
	<g>
		<path d="M183.855,336.675c-4.142,0-7.5,3.357-7.5,7.5v16.032c0,4.143,3.358,7.5,7.5,7.5c4.142,0,7.5-3.357,7.5-7.5v-16.032
			C191.355,340.032,187.997,336.675,183.855,336.675z"/>
	</g>
</g>
<g>
	<g>
		<path d="M319.612,328.143c0.001-4.143-3.358-7.5-7.5-7.5c-4.142,0-7.5,3.358-7.5,7.5l0.002,48.099c0,4.143,3.358,7.5,7.5,7.5
			c4.142,0,7.5-3.358,7.5-7.5L319.612,328.143z"/>
	</g>
</g>
<g>
	<g>
		<path d="M344.177,176.352c-4.142,0-7.5,3.357-7.5,7.5v32.064c0,4.143,3.358,7.5,7.5,7.5c4.142,0,7.5-3.357,7.5-7.5v-32.064
			C351.677,179.709,348.319,176.352,344.177,176.352z"/>
	</g>
</g>
<g>
	<g>
		<path d="M247.984,304.61c-4.142,0-7.5,3.357-7.5,7.5v32.064c0,4.143,3.358,7.5,7.5,7.5c4.142,0,7.5-3.357,7.5-7.5V312.11
			C255.484,307.969,252.126,304.61,247.984,304.61z"/>
	</g>
</g>
<g>
	<g>
		<path d="M280.05,200.402c-4.142,0-7.5,3.357-7.5,7.5v96.194c0,4.143,3.358,7.5,7.5,7.5c4.142,0,7.5-3.357,7.5-7.5v-96.194
			C287.55,203.759,284.192,200.402,280.05,200.402z"/>
	</g>
</g>
<g>
	<g>
		<path d="M280.05,152.305c-4.142,0-7.5,3.357-7.5,7.5v16.032c0,4.143,3.358,7.5,7.5,7.5c4.142,0,7.5-3.357,7.5-7.5v-16.032
			C287.55,155.662,284.192,152.305,280.05,152.305z"/>
	</g>
</g>
<g>
</g>
<g>
</g>
<g>
</g>
<g>
</g>
<g>
</g>
<g>
</g>
<g>
</g>
<g>
</g>
<g>
</g>
<g>
</g>
<g>
</g>
<g>
</g>
<g>
</g>
<g>
</g>
<g>
</g>
</svg>
