<svg height="512pt" viewBox="-30 0 511 512" width="512pt" xmlns="http://www.w3.org/2000/svg"><path d="m339.023438 180.71875h-13.339844c-20.988282 0-40.644532 5.808594-57.453125 15.898438-17.832031-23.703126-45.726563-37.882813-76.144531-37.882813-20.105469 0-38.769532 6.253906-54.167969 16.914063-13.808594-20.042969-36.785157-32.550782-62.054688-32.550782-41.554687 0-75.363281 33.804688-75.363281 75.359375v130.105469h96.183594v73.886719h117.023437v89.550781h237.289063v-219.308594c0-61.742187-50.230469-111.972656-111.972656-111.972656zm-308.523438 137.84375v-100.105469c0-25.011719 20.351562-45.359375 45.363281-45.359375 16.917969 0 32.125 9.3125 39.933594 23.816406-11.996094 15.953126-19.113281 35.769532-19.113281 57.222657v64.425781zm96.183594 73.886719v-138.3125c0-36.0625 29.339844-65.402344 65.402344-65.402344 21.128906 0 40.480468 9.984375 52.6875 26.628906-19.234376 20.113281-31.066407 47.367188-31.066407 77.328125v99.757813zm294.3125 89.550781h-177.289063v-189.308594c0-45.199218 36.773438-81.976562 81.976563-81.976562h13.339844c45.199218 0 81.972656 36.773437 81.972656 81.976562zm0 0"/><path d="m332.351562 156.777344c43.226563 0 78.390626-35.167969 78.390626-78.390625 0-43.222657-35.164063-78.386719-78.390626-78.386719-43.222656 0-78.386718 35.164062-78.386718 78.386719 0 43.222656 35.164062 78.390625 78.386718 78.390625zm0-126.777344c26.683594 0 48.390626 21.707031 48.390626 48.386719 0 26.683593-21.707032 48.390625-48.390626 48.390625-26.679687 0-48.386718-21.707032-48.386718-48.390625 0-26.679688 21.707031-48.386719 48.386718-48.386719zm0 0"/><path d="m188.402344 133.691406c30.496094 0 55.304687-24.808594 55.304687-55.304687 0-30.492188-24.808593-55.304688-55.304687-55.304688-30.492188 0-55.300782 24.8125-55.300782 55.304688 0 30.496093 24.808594 55.304687 55.300782 55.304687zm0-80.605468c13.953125 0 25.304687 11.351562 25.304687 25.300781 0 13.953125-11.351562 25.304687-25.304687 25.304687-13.949219 0-25.300782-11.351562-25.300782-25.304687 0-13.949219 11.347657-25.300781 25.300782-25.300781zm0 0"/><path d="m69.453125 131.855469c26.355469 0 47.796875-21.4375 47.796875-47.792969 0-26.351562-21.441406-47.792969-47.796875-47.792969-26.351563 0-47.792969 21.4375-47.792969 47.792969s21.441406 47.792969 47.792969 47.792969zm0-65.585938c9.8125 0 17.796875 7.980469 17.796875 17.792969s-7.984375 17.796875-17.796875 17.796875c-9.808594 0-17.792969-7.984375-17.792969-17.796875s7.984375-17.792969 17.792969-17.792969zm0 0"/></svg>