<svg id="Capa_1" enable-background="new 0 0 512 512" height="512" viewBox="0 0 512 512" width="512" xmlns="http://www.w3.org/2000/svg"><g><path d="m316.345 497h-74c-4.142 0-7.5 3.357-7.5 7.5s3.358 7.5 7.5 7.5h74c17.152 0 31.107-13.954 31.107-31.106s-13.955-31.107-31.107-31.107h-31.241v-55.568c67.763-13.56 118.977-73.509 118.977-145.202 0-12.406-10.093-22.5-22.5-22.5s-22.5 10.094-22.5 22.5c0 46.735-31.266 86.299-73.977 98.891v-26.016c39.351-12.393 67.968-49.223 67.968-92.613 0-13.542 0-116.382 0-132.206 0-18.036-4.984-35.646-14.414-50.922-2.176-3.523-6.796-4.619-10.322-2.442-3.524 2.176-4.618 6.797-2.443 10.321 7.216 11.69 11.339 25.003 12.054 38.741h-47.834c-11.034 0-20.01 8.977-20.01 20.01 0 11.034 8.977 20.011 20.01 20.011h47.958v10.374h-47.958c-11.034 0-20.01 8.977-20.01 20.01 0 11.034 8.977 20.011 20.01 20.011h47.958v10.374h-47.958c-11.034 0-20.01 8.977-20.01 20.01 0 11.034 8.977 20.011 20.01 20.011h47.845c-1.966 37.888-29.758 69.001-65.834 76.171-49.339 9.872-95.513-26.62-98.085-76.171h47.845c11.034 0 20.01-8.977 20.01-20.011 0-11.033-8.977-20.01-20.01-20.01h-47.958v-10.374h47.958c11.034 0 20.01-8.977 20.01-20.011 0-11.033-8.977-20.01-20.01-20.01h-47.958v-10.374h47.958c11.034 0 20.01-8.977 20.01-20.011 0-11.033-8.977-20.01-20.01-20.01h-47.845c2.247-43.263 38.149-77.771 81.961-77.771 17.47 0 34.145 5.413 48.224 15.653 3.35 2.437 8.04 1.695 10.477-1.653 2.437-3.351 1.696-8.041-1.654-10.478-16.659-12.117-36.386-18.522-57.047-18.522-53.526 0-97.073 43.547-97.073 97.072v132.206c0 43.39 28.617 80.219 67.968 92.613v26.016c-42.711-12.592-73.977-52.156-73.977-98.891 0-12.406-10.093-22.5-22.5-22.5s-22.5 10.094-22.5 22.5c0 71.693 51.214 131.642 118.977 145.202v55.568h-31.241c-17.152 0-31.107 13.955-31.107 31.107s13.955 31.107 31.108 31.107h11.69c4.142 0 7.5-3.357 7.5-7.5s-3.358-7.5-7.5-7.5h-11.69c-8.881 0-16.107-7.226-16.107-16.106 0-8.882 7.226-16.107 16.107-16.107h120.69c8.881 0 16.107 7.226 16.107 16.107 0 8.88-7.225 16.106-16.107 16.106zm-26.23-379.209c-2.763 0-5.01-2.248-5.01-5.011s2.248-5.01 5.01-5.01h47.958v10.021zm0 50.395c-2.763 0-5.01-2.248-5.01-5.011s2.248-5.01 5.01-5.01h47.958v10.021zm-5.011 45.383c0-2.763 2.248-5.01 5.01-5.01h47.958v10.021h-47.958c-2.762 0-5.01-2.248-5.01-5.011zm-63.219-5.009c2.763 0 5.01 2.247 5.01 5.01s-2.248 5.011-5.01 5.011h-47.958v-10.021zm0-50.395c2.763 0 5.01 2.247 5.01 5.01s-2.248 5.011-5.01 5.011h-47.958v-10.021zm5.011-45.385c0 2.763-2.248 5.011-5.01 5.011h-47.958v-10.021h47.958c2.762.001 5.01 2.248 5.01 5.01zm15 212.547c4.732.692 9.676 1.023 14.104 1.023 4.834 0 9.721-.383 14.104-1.023v25.801c-9.36 1.281-18.84 1.279-28.091.017-.039-.005-.078-.011-.118-.017v-25.801zm-118.978-76.31c0-4.136 3.364-7.5 7.5-7.5 4.135 0 7.5 3.364 7.5 7.5 0 66.389 54.928 119.687 121.026 118.044 63.384-1.56 115.137-53.559 115.137-118.044 0-4.136 3.365-7.5 7.5-7.5 4.136 0 7.5 3.364 7.5 7.5 0 66.426-48.92 121.639-112.625 131.509-80.708 12.5-153.538-50.096-153.538-131.509zm118.978 147.411c4.228.401 9.361.67 14.104.67 4.689 0 9.776-.259 14.104-.67v53.358h-28.209v-53.358z"/></g></svg>