<svg height="512pt" viewBox="-11 0 512 512" width="512pt" xmlns="http://www.w3.org/2000/svg"><path d="m490 267c0 135.308594-109.691406 245-245 245s-245-109.691406-245-245 109.691406-245 245-245 245 109.691406 245 245zm0 0" fill="#91e0e8"/><path d="m434.125 372.015625h-5.242188l14.351563 24.859375h9.523437c6.9375-11.074219 13.027344-22.738281 18.152344-34.910156h-37.972656l3.496094 6.054687c.472656.820313.472656 1.84375 0 2.664063-.472656.820312-1.359375 1.332031-2.308594 1.332031zm0 0" fill="#60d882"/><path d="m433.371094 362.714844h37.222656c1.683594-3.96875 3.265625-7.984375 4.746094-12.054688l-19.507813-33.789062c-.667969-1.15625-1.90625-1.871094-3.242187-1.871094-1.339844 0-2.574219.714844-3.242188 1.871094l-21.222656 36.757812zm0 0" fill="#37c47a"/><path d="m433.371094 362.714844h8.375c-1.339844 0-2.574219-.714844-3.242188-1.875-.667968-1.15625-.667968-2.585938 0-3.742188l20.273438-35.121094-2.945313-5.105468c-.667969-1.15625-1.902343-1.871094-3.242187-1.871094-1.335938 0-2.574219.714844-3.242188 1.871094l-21.222656 36.757812zm0 0" fill="#2bb381"/><path d="m43.765625 396.875 14.351563-24.859375h-5.242188c-.949219 0-1.835938-.511719-2.308594-1.332031-.472656-.820313-.472656-1.84375 0-2.664063l3.496094-6.054687h-26.394531l-4.84375 8.390625c4.269531 9.164062 9.089843 18.015625 14.417969 26.519531zm0 0" fill="#60d882"/><path d="m25.027344 362.714844h28.601562l12.167969-21.070313-1.96875-3.40625c-.933594-.015625-1.800781-.519531-2.269531-1.328125-.46875-.8125-.46875-1.8125-.015625-2.628906l-10.050781-17.40625c-.667969-1.160156-1.902344-1.875-3.242188-1.875-1.335938 0-2.574219.714844-3.242188 1.875l-23.222656 40.222656c-.667968 1.160156-.667968 2.585938 0 3.746094.667969 1.15625 1.90625 1.871094 3.242188 1.871094zm0 0" fill="#37c47a"/><path d="m34.5 360.839844c-.667969-1.15625-.667969-2.585938 0-3.742188l20.109375-34.828125-3.117187-5.398437c-.667969-1.15625-1.902344-1.871094-3.242188-1.871094-1.335938 0-2.574219.714844-3.242188 1.871094l-23.222656 40.226562c-.667968 1.15625-.667968 2.585938 0 3.742188.667969 1.160156 1.902344 1.875 3.242188 1.875h12.714844c-1.335938 0-2.570313-.714844-3.242188-1.875zm0 0" fill="#2bb381"/><path d="m420 339.558594v-1.316406h-.757812zm0 0" fill="#ea2a3d"/><path d="m371.941406 372.015625h-5.246094c-.949218 0-1.832031-.511719-2.304687-1.332031-.476563-.820313-.476563-1.84375 0-2.664063l17.191406-29.777343h-3.894531c-.949219 0-1.832031-.511719-2.304688-1.332032-.476562-.820312-.476562-1.84375-.003906-2.664062l22.726563-39.355469c.472656-.820313 1.355469-1.332031 2.304687-1.332031.949219 0 1.832032.511718 2.308594 1.332031l17.28125 29.929687v-51.878906h-135.84375c-1.972656 0-3.816406-.882812-5.058594-2.417968l-5.097656-6.308594v132.660156h83.585938zm0 0" fill="#ea2a3d"/><path d="m298.429688 354c0 2.75 2.25 5 5 5h19.570312c2.75 0 5-2.25 5-5v-47.648438c0-2.75-2.25-5-5-5h-19.570312c-2.75 0-5 2.25-5 5zm0 0" fill="#69cdff"/><path d="m311 354v-47.648438c0-2.75 2.25-5 5-5h-12.570312c-2.75 0-5 2.25-5 5v47.648438c0 2.75 2.25 5 5 5h12.570312c-2.75 0-5-2.25-5-5zm0 0" fill="#3eb7ff"/><path d="m335.429688 354c0 2.75 2.25 5 5 5h19.570312c2.75 0 5-2.25 5-5v-47.648438c0-2.75-2.25-5-5-5h-19.570312c-2.75 0-5 2.25-5 5zm0 0" fill="#69cdff"/><path d="m348 354v-47.648438c0-2.75 2.25-5 5-5h-12.570312c-2.75 0-5 2.25-5 5v47.648438c0 2.75 2.25 5 5 5h12.570312c-2.75 0-5-2.25-5-5zm0 0" fill="#3eb7ff"/><path d="m381.582031 338.242188h-3.894531c-.949219 0-1.832031-.511719-2.304688-1.332032-.476562-.820312-.476562-1.84375 0-2.664062l18.988282-32.894532h-16.941406c-2.75 0-5 2.25-5 5v47.648438c0 .027344.007812.050781.007812.078125zm0 0" fill="#69cdff"/><path d="m381.582031 338.242188h-3.894531c-.949219 0-1.832031-.511719-2.304688-1.332032-.476562-.820312-.476562-1.84375 0-2.664062l9.617188-16.660156v-11.230469c0-2.75 2.25-5 5-5h-12.570312c-2.75 0-5 2.25-5 5v47.644531c0 .027344.007812.050781.007812.078125zm0 0" fill="#3eb7ff"/><path d="m444.390625 396.875-14.199219-24.59375h-59.558594l-14.199218 24.59375zm0 0" fill="#37c47a"/><path d="m368.609375 396.875 14.199219-24.59375h-12.175782l-14.199218 24.59375zm0 0" fill="#2bb381"/><path d="m437.300781 367.519531-16.75-29.007812h-40.277343l-16.75 29.007812c-.65625 1.132813-.65625 2.53125 0 3.664063.652343 1.132812 1.863281 1.832031 3.171874 1.832031h67.429688c1.308594 0 2.519531-.699219 3.171875-1.832031.65625-1.132813.65625-2.53125.003906-3.664063zm0 0" fill="#02af8e"/><path d="m375.734375 371.183594c-.65625-1.132813-.65625-2.53125 0-3.664063l16.75-29.007812h-12.210937l-16.75 29.007812c-.65625 1.132813-.65625 2.53125 0 3.664063.65625 1.132812 1.863281 1.832031 3.171874 1.832031h12.210938c-1.308594 0-2.519531-.699219-3.171875-1.832031zm0 0" fill="#159e97"/><path d="m377.6875 339.242188c-1.308594 0-2.515625-.699219-3.171875-1.832032-.652344-1.132812-.652344-2.53125 0-3.664062l22.722656-39.355469c.65625-1.132813 1.863281-1.832031 3.171875-1.832031 1.3125 0 2.519532.699218 3.175782 1.832031l22.722656 39.355469c.652344 1.132812.652344 2.53125 0 3.664062-.65625 1.132813-1.867188 1.832032-3.175782 1.832032zm0 0" fill="#159e97"/><path d="m386.71875 337.410156c-.65625-1.132812-.65625-2.53125 0-3.664062l19.792969-34.285156-2.925781-5.070313c-.65625-1.132813-1.863282-1.832031-3.175782-1.832031-1.308594 0-2.515625.699218-3.171875 1.832031l-22.722656 39.355469c-.652344 1.132812-.652344 2.53125 0 3.664062.65625 1.132813 1.863281 1.832032 3.171875 1.832032h12.203125c-1.308594 0-2.519531-.699219-3.171875-1.832032zm0 0" fill="#0f9390"/><path d="m117.472656 396.875v-22.679688l-1.105468-1.914062h-59.558594l-14.199219 24.59375zm0 0" fill="#37c47a"/><path d="m55.433594 396.875 14.199218-24.59375h-12.824218l-14.199219 24.59375zm0 0" fill="#2bb381"/><path d="m117.472656 357.121094-10.746094-18.609375h-40.277343l-16.75 29.007812c-.652344 1.132813-.652344 2.53125 0 3.664063.65625 1.132812 1.867187 1.832031 3.175781 1.832031h64.597656zm0 0" fill="#02af8e"/><path d="m61.734375 371.183594c-.65625-1.132813-.65625-2.53125 0-3.664063l16.746094-29.007812h-12.03125l-16.75 29.007812c-.652344 1.132813-.652344 2.53125 0 3.664063.65625 1.132812 1.867187 1.832031 3.175781 1.832031h12.03125c-1.308594 0-2.519531-.699219-3.171875-1.832031zm0 0" fill="#159e97"/><path d="m63.867188 339.242188c-1.308594 0-2.519532-.699219-3.175782-1.832032-.652344-1.132812-.652344-2.53125 0-3.664062l22.722656-39.355469c.65625-1.132813 1.863282-1.832031 3.175782-1.832031 1.308594 0 2.515625.699218 3.171875 1.832031l22.722656 39.355469c.652344 1.132812.652344 2.53125 0 3.664062-.65625 1.132813-1.867187 1.832032-3.171875 1.832032zm0 0" fill="#159e97"/><path d="m72.71875 337.410156c-.65625-1.132812-.65625-2.53125 0-3.664062l19.882812-34.4375-2.839843-4.921875c-.65625-1.132813-1.863281-1.832031-3.171875-1.832031-1.3125 0-2.519532.699218-3.175782 1.832031l-22.722656 39.359375c-.652344 1.132812-.652344 2.53125 0 3.660156.65625 1.136719 1.867188 1.835938 3.175782 1.835938h12.023437c-1.308594 0-2.519531-.699219-3.171875-1.832032zm0 0" fill="#0f9390"/><path d="m275.019531 396.875v-131.398438l-79.273437-98.132812-79.273438 98.132812v131.398438zm0 0" fill="#fe3745"/><path d="m136.953125 396.875v-123.511719l72.21875-89.398437-13.425781-16.621094-79.273438 98.132812v131.398438zm0 0" fill="#ea2a3d"/><path d="m437.84375 261.738281-86.964844-108.152343v46.34375c0 2.207031-1.792968 4-4 4h-42.261718c-2.203126 0-4-1.792969-4-4v-50.429688h-104.871094c-2.59375 0-4.96875 1.34375-6.332032 3.5l-87.910156 108.726562c-2.601562 3.222657-2.101562 7.945313 1.121094 10.546876 1.386719 1.121093 3.054688 1.667968 4.710938 1.667968 2.1875 0 4.355468-.953125 5.835937-2.789062l82.574219-102.214844 82.574218 102.214844c1.425782 1.765625 3.570313 2.789062 5.835938 2.789062h147.84375c2.886719 0 5.515625-1.65625 6.765625-4.261718 1.246094-2.601563.886719-5.691407-.921875-7.941407zm0 0" fill="#fff"/><path d="m227.03125 396.875v-90.523438c0-2.75-2.25-5-5-5h-52.570312c-2.75 0-5 2.25-5 5v90.523438zm0 0" fill="#293d7c"/><path d="m189.429688 396.875v-90.523438c0-2.75 2.25-5 5-5h-24.96875c-2.75 0-5 2.25-5 5v90.523438zm0 0" fill="#1a2b63"/><path d="m349.777344 96.914062c0 4.996094-4.542969 9.085938-10.09375 9.085938h-15.589844c-5.550781 0-10.09375-4.089844-10.09375-9.085938 0-4.996093 4.542969-9.085937 10.09375-9.085937h15.589844c5.550781 0 10.09375 4.089844 10.09375 9.085937zm0 0" fill="#ffe2b8"/><path d="m399.902344 69h-33.453125c-5.554688 0-10.097657 4.089844-10.097657 9.085938 0 4.996093 4.542969 9.085937 10.097657 9.085937h33.453125c5.554687 0 10.097656-4.089844 10.097656-9.085937 0-4.996094-4.542969-9.085938-10.097656-9.085938zm0 0" fill="#ffe2b8"/><path d="m382.503906 37.675781h-6.679687c-5.757813 0-10.464844-4.238281-10.464844-9.417969 0-5.179687 4.707031-9.417968 10.464844-9.417968h4.398437c5.753906 0 10.464844-4.238282 10.464844-9.417969 0-5.183594-4.710938-9.421875-10.464844-9.421875h-85.050781c-5.753906 0-10.464844 4.238281-10.464844 9.421875 0 5.179687 4.710938 9.417969 10.464844 9.417969h34.480469c5.753906 0 10.464844 4.238281 10.464844 9.417968 0 5.179688-4.710938 9.417969-10.464844 9.417969h-6.21875c-5.757813 0-10.464844 4.238281-10.464844 9.421875 0 5.179688 4.707031 9.417969 10.464844 9.417969h59.070312c5.753906 0 10.464844-4.238281 10.464844-9.417969 0-5.183594-4.707031-9.421875-10.464844-9.421875zm0 0" fill="#ffdd8d"/><path d="m36.613281 395.875c43.195313 69.695312 120.363281 116.125 208.386719 116.125s165.191406-46.429688 208.386719-116.125zm0 0" fill="#eef6ff"/><path d="m299.617188 142.589844v57.339844c0 2.75 2.25 5 5 5h42.261718c2.75 0 5-2.25 5-5v-57.339844zm0 0" fill="#ea2a3d"/><path d="m316.742188 199.929688v-57.339844h-17.125v57.339844c0 2.75 2.25 5 5 5h17.125c-2.75 0-5-2.25-5-5zm0 0" fill="#b7092b"/><path d="m360.128906 138.589844c0 2.75-2.25 5-5 5h-58.761718c-2.75 0-5-2.25-5-5v-16.589844c0-2.75 2.25-5 5-5h58.761718c2.75 0 5 2.25 5 5zm0 0" fill="#fff"/><path d="m316.238281 138.589844v-16.589844c0-2.75 2.25-5 5-5h-24.871093c-2.75 0-5 2.25-5 5v16.589844c0 2.75 2.25 5 5 5h24.871093c-2.75 0-5-2.25-5-5zm0 0" fill="#eef6ff"/><path d="m188.535156 414.585938c0 4.125-3.75 7.5-8.335937 7.5h-12.863281c-4.585938 0-8.335938-3.375-8.335938-7.5s3.75-7.5 8.335938-7.5h12.863281c4.585937 0 8.335937 3.375 8.335937 7.5zm0 0" fill="#c3ddf4"/><path d="m226 436c0 4.125-3.75 7.5-8.332031 7.5h-12.867188c-4.582031 0-8.332031-3.375-8.332031-7.5s3.75-7.5 8.332031-7.5h12.867188c4.582031 0 8.332031 3.375 8.332031 7.5zm0 0" fill="#c3ddf4"/><path d="m191.765625 460.5c0 4.125-3.75 7.5-8.332031 7.5h-12.867188c-4.585937 0-8.335937-3.375-8.335937-7.5s3.75-7.5 8.335937-7.5h12.867188c4.582031 0 8.332031 3.375 8.332031 7.5zm0 0" fill="#d9eafc"/><path d="m243.765625 476.5c0 4.125-3.75 7.5-8.332031 7.5h-12.867188c-4.585937 0-8.335937-3.375-8.335937-7.5s3.75-7.5 8.335937-7.5h12.867188c4.582031 0 8.332031 3.375 8.332031 7.5zm0 0" fill="#d9eafc"/><g fill="#fff"><path d="m174.820312 86.304688c-1.648437 0-3.675781-1.171876-4.5-2.601563l-3.726562-6.453125c-.824219-1.429688-.824219-3.769531 0-5.195312l3.726562-6.457032c.824219-1.429687 2.851563-2.597656 4.5-2.597656h7.453126c1.648437 0 3.675781 1.167969 4.5 2.597656l3.726562 6.457032c.824219 1.429687.824219 3.765624 0 5.195312l-3.726562 6.453125c-.824219 1.429687-2.851563 2.601563-4.5 2.601563zm0 0"/><path d="m106.726562 167c-1.648437 0-3.675781-1.167969-4.5-2.597656l-3.726562-6.457032c-.824219-1.429687-.824219-3.765624 0-5.195312l3.726562-6.453125c.824219-1.429687 2.851563-2.601563 4.5-2.601563h7.453126c1.648437 0 3.675781 1.171876 4.5 2.601563l3.726562 6.453125c.824219 1.429688.824219 3.769531 0 5.195312l-3.726562 6.457032c-.824219 1.429687-2.851563 2.597656-4.5 2.597656zm0 0"/><path d="m41.820312 250c-1.648437 0-3.675781-1.167969-4.5-2.597656l-3.726562-6.457032c-.824219-1.429687-.824219-3.765624 0-5.195312l3.726562-6.453125c.824219-1.429687 2.851563-2.601563 4.5-2.601563h7.453126c1.648437 0 3.675781 1.171876 4.5 2.601563l3.726562 6.453125c.824219 1.429688.824219 3.769531 0 5.195312l-3.726562 6.457032c-.824219 1.429687-2.851563 2.597656-4.5 2.597656zm0 0"/></g><path d="m433.726562 216.304688c-1.648437 0-3.675781-1.171876-4.5-2.601563l-3.726562-6.453125c-.824219-1.429688-.824219-3.769531 0-5.195312l3.726562-6.457032c.824219-1.429687 2.851563-2.597656 4.5-2.597656h7.453126c1.648437 0 3.675781 1.167969 4.5 2.597656l3.726562 6.457032c.824219 1.429687.824219 3.765624 0 5.195312l-3.726562 6.453125c-.824219 1.429687-2.851563 2.601563-4.5 2.601563zm0 0" fill="#eef6ff"/><path d="m239.820312 120.304688c-1.648437 0-3.675781-1.171876-4.5-2.601563l-3.726562-6.453125c-.824219-1.429688-.824219-3.769531 0-5.195312l3.726562-6.457032c.824219-1.429687 2.851563-2.597656 4.5-2.597656h7.453126c1.648437 0 3.675781 1.167969 4.5 2.597656l3.726562 6.457032c.824219 1.429687.824219 3.765624 0 5.195312l-3.726562 6.453125c-.824219 1.429687-2.851563 2.601563-4.5 2.601563zm0 0" fill="#eef6ff"/></svg>